# xmcd
#
# Track frame offsets:
# 150
# 15469
# 34249
# 54795
# 71016
# 84237
# 100445
# 113322
# 129689
# 142780
# 155451
# 173735
# 194937
# 208953
# 222901
# 238083
# 252355
# 267893
# 283746
# 299908
# 317409
# 331513
# 348407
#
# Disc length: 4843 seconds
#
#
# Revision: 0
# Processed by: cddbd v1.5.1PL2 Copyright (c) Steve Scherf et al.
# Submitted via: FreeRIP 2.945 
#
DISCID=5912e917
DTITLE=Lobo - The Very Best Of Lobo
DYEAR=1900
DGENRE=Country
TTITLE0=I Don't Want To Want You
TTITLE1=I'd Love You To Want Me
TTITLE2=How Can I Tell Her
TTITLE3=Stoney
TTITLE4=Me and You And A Dog Named Boo
TTITLE5=Don't Expect Me To Be Your Friend
TTITLE6=The End Of The World
TTITLE7=Yellow River
TTITLE8=She Didn't Do Magic
TTITLE9=California Kid And Reemo
TTITLE10=A Big Red Kite
TTITLE11=Will You Still Love Me Tommorrow
TTITLE12=It Sure Took A Long Long Time
TTITLE13=Don't Tell Me Goodnite
TTITLE14=There Ain't No Way
TTITLE15=A Simple Man
TTITLE16=Rock and Roll Day
TTITLE17=Dream Lover
TTITLE18=It Doesn't Matter Anymore
TTITLE19=Standline At The End Of The Line
TTITLE20=Don't Tell Me Goodnight
TTITLE21=Would I Love You
TTITLE22=I'm The Only One
EXTD=
EXTT0=
EXTT1=
EXTT2=
EXTT3=
EXTT4=
EXTT5=
EXTT6=
EXTT7=
EXTT8=
EXTT9=
EXTT10=
EXTT11=
EXTT12=
EXTT13=
EXTT14=
EXTT15=
EXTT16=
EXTT17=
EXTT18=
EXTT19=
EXTT20=
EXTT21=
EXTT22=
PLAYORDER=
